HIERARCHY
ROOT character_A_root
{
	OFFSET 0.000000 0.000000 0.000000
	CHANNELS 6 Xposition Yposition Zposition Xrotation Yrotation Zrotation
	JOINT character_A_pelvis
	{
		OFFSET 0.000000 0.000000 0.000000
		CHANNELS 3 Xrotation Yrotation Zrotation
		JOINT character_A_spine
		{
			OFFSET -0.006400 0.538076 0.000000
			CHANNELS 3 Xrotation Yrotation Zrotation
			JOINT character_A_head
			{
				OFFSET 0.012744 0.245383 0.000000
				CHANNELS 3 Xrotation Yrotation Zrotation
				JOINT character_A_nose
				{
					OFFSET -0.008787 -0.131621 -0.002605
					CHANNELS 3 Xrotation Yrotation Zrotation
					End Site
					{
						OFFSET 0.000000 0.050000 0.000000
					}
				}
			}
			JOINT character_A_left_shoulder
			{
				OFFSET 0.108057 -0.069769 0.094471
				CHANNELS 3 Xrotation Yrotation Zrotation
				JOINT character_A_left_elbow
				{
					OFFSET 0.031628 -0.239596 -0.139088
					CHANNELS 3 Xrotation Yrotation Zrotation
					JOINT character_A_left_wrist
					{
						OFFSET 0.010597 -0.101834 -0.186326
						CHANNELS 3 Xrotation Yrotation Zrotation
						End Site
						{
							OFFSET 0.000000 0.050000 0.000000
						}
					}
				}
			}
			JOINT character_A_right_shoulder
			{
				OFFSET -0.114595 -0.059038 0.102763
				CHANNELS 3 Xrotation Yrotation Zrotation
				JOINT character_A_right_elbow
				{
					OFFSET -0.054650 -0.246550 -0.079184
					CHANNELS 3 Xrotation Yrotation Zrotation
					JOINT character_A_right_wrist
					{
						OFFSET -0.039546 -0.120930 -0.167408
						CHANNELS 3 Xrotation Yrotation Zrotation
						End Site
						{
							OFFSET 0.000000 0.050000 0.000000
						}
					}
				}
			}
		}
		JOINT character_A_left_hip
		{
			OFFSET 0.064495 -0.018473 0.101805
			CHANNELS 3 Xrotation Yrotation Zrotation
			JOINT character_A_left_knee
			{
				OFFSET -0.013415 -0.404926 0.097567
				CHANNELS 3 Xrotation Yrotation Zrotation
				JOINT character_A_left_ankle
				{
					OFFSET -0.033827 -0.357830 0.207383
					CHANNELS 3 Xrotation Yrotation Zrotation
					JOINT character_A_left_big_toe
					{
						OFFSET -0.008355 -0.113888 0.066374
						CHANNELS 3 Xrotation Yrotation Zrotation
						End Site
						{
							OFFSET 0.000000 0.050000 0.000000
						}
					}
					JOINT character_A_left_small_toe
					{
						OFFSET 0.019861 -0.105049 0.045203
						CHANNELS 3 Xrotation Yrotation Zrotation
						End Site
						{
							OFFSET 0.000000 0.050000 0.000000
						}
					}
					JOINT character_A_left_heel
					{
						OFFSET -0.015740 -0.054451 0.041248
						CHANNELS 3 Xrotation Yrotation Zrotation
						End Site
						{
							OFFSET 0.000000 0.050000 0.000000
						}
					}
				}
			}
		}
		JOINT character_A_right_hip
		{
			OFFSET -0.060818 -0.017714 0.289385
			CHANNELS 3 Xrotation Yrotation Zrotation
			JOINT character_A_right_knee
			{
				OFFSET 0.024497 -0.400024 0.102706
				CHANNELS 3 Xrotation Yrotation Zrotation
				JOINT character_A_right_ankle
				{
					OFFSET 0.016037 -0.354408 0.210815
					CHANNELS 3 Xrotation Yrotation Zrotation
					JOINT character_A_right_big_toe
					{
						OFFSET -0.000881 -0.112993 0.055364
						CHANNELS 3 Xrotation Yrotation Zrotation
						End Site
						{
							OFFSET 0.000000 0.050000 0.000000
						}
					}
					JOINT character_A_right_small_toe
					{
						OFFSET -0.021559 -0.104872 0.042888
						CHANNELS 3 Xrotation Yrotation Zrotation
						End Site
						{
							OFFSET 0.000000 0.050000 0.000000
						}
					}
					JOINT character_A_right_heel
					{
						OFFSET 0.008712 -0.057795 0.038858
						CHANNELS 3 Xrotation Yrotation Zrotation
						End Site
						{
							OFFSET 0.000000 0.050000 0.000000
						}
					}
				}
			}
		}
	}
}
MOTION
Frames: 14
Frame Time: 0.03333333
0.000000 0.000000 0.000000 0.000000 0.000000 0.000000 2.472239 -19.238772 -6.560365 131.917690 -6.022738 158.423261 136.961458 -0.265496 155.770129 0.000000 0.000000 -0.000000 156.254768 -8.789654 163.271010 -7.938542 22.861167 2.328194 -0.000000 0.000000 0.000000 140.321528 6.799378 -162.446442 -16.618936 -0.911533 -7.986757 -0.000000 0.000000 0.000000 -11.843324 17.452019 7.078356 5.028263 3.334628 7.566976 107.458951 -5.607060 -163.596837 -0.000000 0.000000 0.000000 -0.000000 0.000000 0.000000 -0.000000 0.000000 0.000000 -14.952449 12.817271 -11.991934 6.420791 2.795757 14.938658 53.681881 43.697613 -89.659252 -0.000000 0.000000 0.000000 -0.000000 0.000000 0.000000 -0.000000 0.000000 0.000000
0.000000 0.000000 0.000000 0.000000 0.000000 0.000000 2.472239 -19.238772 -6.560366 131.917689 -6.022743 158.423261 136.961459 -0.265492 155.770152 -0.000000 0.000000 0.000000 156.254769 -8.789648 163.271011 -7.938542 22.861167 2.328194 -0.000000 0.000000 0.000000 140.321527 6.799383 -162.446439 -16.618936 -0.911532 -7.986756 -0.000000 0.000000 0.000000 -11.843324 17.452019 7.078356 5.028250 3.334643 7.567005 107.458973 -5.607102 -163.596817 0.000000 0.000000 -0.000000 0.000000 0.000000 -0.000000 0.000000 0.000000 -0.000000 -14.952449 12.817271 -11.991933 6.420792 2.795757 14.938658 53.681876 43.697609 -89.659245 0.000000 0.000000 0.000000 0.000000 0.000000 0.000000 0.000000 0.000000 0.000000
-0.005980 -0.001360 -0.189490 0.000000 0.000000 0.000000 2.458890 -19.233920 -6.555348 131.794505 -5.980446 158.421342 136.822586 -0.255614 156.084784 -0.000000 0.000000 -0.000000 155.689362 -8.718094 163.305910 -8.176074 22.806468 2.217485 -0.000000 0.000000 0.000000 141.166029 6.703833 -162.493640 -15.156739 -1.468268 -8.306992 -0.000000 0.000000 0.000000 -12.049149 17.455516 7.301013 5.149190 3.206197 7.257832 105.911029 -4.241096 -163.432824 -0.000000 0.000000 -0.000000 -0.000000 0.000000 -0.000000 -0.000000 0.000000 -0.000000 -15.620975 12.813959 -11.618847 6.768443 2.706481 14.586437 54.017421 45.392204 -89.806283 0.000000 0.000000 -0.000000 0.000000 0.000000 -0.000000 0.000000 0.000000 -0.000000
0.006412 -0.001645 -0.193004 0.000000 0.000000 0.000000 2.711276 -19.140931 -6.704500 132.046729 -6.034210 158.599727 137.383674 -0.309922 156.226475 -0.000000 0.000000 0.000000 155.462144 -8.459181 163.724669 -8.665207 22.805263 1.880059 -0.000000 0.000000 -0.000000 139.991527 6.736122 -162.459135 -16.596955 -1.066747 -7.817821 0.000000 0.000000 -0.000000 -13.160545 17.220422 7.928430 5.752270 3.145267 7.079417 105.462915 -3.834443 -162.664912 -0.000000 0.000000 -0.000000 -0.000000 0.000000 -0.000000 -0.000000 0.000000 -0.000000 -17.177945 12.538420 -11.232041 7.759447 3.067101 14.810997 55.227671 44.945719 -90.202261 0.000000 0.000000 -0.000000 0.000000 0.000000 -0.000000 0.000000 0.000000 -0.000000
-0.031657 0.001863 -0.183588 0.000000 0.000000 0.000000 2.843320 -19.450850 -6.595993 131.597675 -6.658087 158.380116 137.280207 0.040329 156.884556 0.000000 0.000000 0.000000 154.897849 -8.058393 163.833212 -9.706185 22.382789 1.951039 0.000000 0.000000 -0.000000 139.221923 7.228667 -161.892079 -16.335301 -1.284472 -8.022696 -0.000000 0.000000 -0.000000 -11.274519 17.788580 7.451387 4.045347 3.149856 6.974670 104.383716 -3.458506 -161.941081 0.000000 0.000000 -0.000000 0.000000 0.000000 -0.000000 0.000000 0.000000 -0.000000 -16.367447 12.717472 -12.630193 7.124302 3.590973 16.470594 54.442630 43.313931 -88.637200 -0.000000 0.000000 0.000000 -0.000000 0.000000 0.000000 -0.000000 0.000000 0.000000
-0.053544 0.007351 0.203751 0.000000 0.000000 0.000000 2.919521 -19.368029 -6.432822 131.597341 -7.150109 158.521972 137.491610 0.364887 157.641144 0.000000 0.000000 0.000000 156.049834 -7.842651 163.877631 -9.999916 22.266813 2.297737 -0.000000 0.000000 0.000000 139.012203 7.689327 -161.288025 -16.525576 -1.329527 -8.141846 -0.000000 0.000000 -0.000000 -7.127639 18.123764 5.921742 1.095897 3.248940 7.107623 102.726334 -3.270913 -161.402796 -0.000000 0.000000 -0.000000 -0.000000 0.000000 -0.000000 -0.000000 0.000000 -0.000000 -14.411151 12.533818 -14.578003 5.966839 3.952680 18.047974 53.308910 42.062747 -87.768579 -0.000000 0.000000 0.000000 -0.000000 0.000000 0.000000 -0.000000 0.000000 0.000000
-0.040721 0.012645 0.235383 0.000000 0.000000 0.000000 2.710063 -19.293418 -6.150409 131.932764 -7.726997 158.826411 137.704685 0.568702 157.840168 -0.000000 0.000000 -0.000000 159.570756 -7.904464 163.926631 -8.535977 22.705592 3.032184 -0.000000 0.000000 0.000000 139.743519 7.972845 -160.772129 -16.326235 -1.493711 -8.329760 0.000000 0.000000 0.000000 -1.172307 18.457743 3.641820 -2.689045 3.357232 7.258693 101.324155 -3.220871 -161.187140 -0.000000 0.000000 -0.000000 -0.000000 0.000000 -0.000000 -0.000000 0.000000 -0.000000 -11.537017 12.382554 -16.763878 5.150706 4.439975 19.282619 50.543865 40.636493 -85.978021 0.000000 0.000000 -0.000000 0.000000 0.000000 -0.000000 0.000000 0.000000 -0.000000
-0.044635 0.015725 0.269632 0.000000 0.000000 0.000000 1.897411 -19.418206 -5.601497 133.194606 -8.585494 159.376695 138.145495 0.447864 156.584523 0.000000 0.000000 -0.000000 162.093016 -8.223684 163.891827 -8.105116 22.564500 3.633059 -0.000000 0.000000 0.000000 143.651803 7.718756 -160.717624 -13.616659 -2.665592 -8.932392 -0.000000 0.000000 0.000000 3.547493 18.745271 1.509352 -4.437483 3.414900 7.322417 100.544597 -3.049478 -161.438022 -0.000000 0.000000 0.000000 -0.000000 0.000000 0.000000 -0.000000 0.000000 0.000000 -7.165794 12.448557 -19.394676 3.665018 4.640301 20.230867 47.581237 39.980564 -84.792350 -0.000000 0.000000 0.000000 -0.000000 0.000000 0.000000 -0.000000 0.000000 0.000000
-0.050344 0.019014 0.303486 0.000000 0.000000 0.000000 1.395349 -19.460600 -5.260648 134.256792 -9.166744 159.660510 138.693775 0.453009 155.593009 -0.000000 0.000000 -0.000000 163.994877 -8.307117 163.840307 -9.032286 22.773523 3.936626 0.000000 0.000000 -0.000000 147.705000 7.540344 -160.843972 -11.035244 -3.820208 -9.426203 0.000000 0.000000 0.000000 6.584967 18.784238 0.141892 -5.131706 3.447059 7.344136 100.122229 -2.956724 -161.796971 -0.000000 0.000000 -0.000000 -0.000000 0.000000 -0.000000 -0.000000 0.000000 -0.000000 -2.945465 12.193825 -21.627522 1.719981 4.674396 21.146440 45.160903 38.727037 -83.665531 -0.000000 0.000000 0.000000 -0.000000 0.000000 0.000000 -0.000000 0.000000 0.000000
-0.053904 0.020265 0.324597 0.000000 0.000000 0.000000 0.908315 -19.589536 -4.702108 135.159587 -9.907345 160.016064 139.084986 0.484074 154.941729 0.000000 0.000000 0.000000 165.249366 -8.273221 163.851212 -10.057134 23.078720 4.067031 0.000000 0.000000 -0.000000 150.358900 7.395331 -161.059034 -9.415671 -4.628293 -9.618845 -0.000000 0.000000 -0.000000 8.831476 18.818268 -1.171023 -5.502987 3.465736 7.352443 99.933937 -2.985892 -161.971846 -0.000000 0.000000 -0.000000 -0.000000 0.000000 -0.000000 -0.000000 0.000000 -0.000000 -1.139559 12.228075 -22.908997 1.308886 4.778995 21.371705 43.983080 37.648026 -82.940087 -0.000000 0.000000 -0.000000 -0.000000 0.000000 -0.000000 -0.000000 0.000000 -0.000000
-0.054097 0.021985 0.327164 0.000000 0.000000 0.000000 0.821245 -19.630792 -4.340952 135.519694 -10.194722 160.341910 139.292103 0.376065 154.524404 0.000000 0.000000 0.000000 166.053371 -8.388548 163.905667 -10.839861 23.248133 4.200155 -0.000000 0.000000 -0.000000 152.049116 7.199452 -161.085068 -8.343648 -5.135091 -9.790596 -0.000000 0.000000 0.000000 10.045700 18.760858 -1.930785 -5.348982 3.483553 7.356416 98.367614 -2.321493 -161.688716 -0.000000 0.000000 0.000000 -0.000000 0.000000 0.000000 -0.000000 0.000000 0.000000 -0.335965 12.147286 -23.737255 0.643203 4.645257 21.661680 43.184807 37.378680 -81.571635 0.000000 0.000000 0.000000 0.000000 0.000000 0.000000 0.000000 0.000000 0.000000
-0.056294 0.023600 0.339049 0.000000 0.000000 0.000000 0.733677 -19.607111 -4.309093 135.866117 -10.288636 160.373270 139.546813 0.402699 154.404241 -0.000000 0.000000 -0.000000 166.679648 -8.391005 163.870740 -11.604037 23.381784 4.291523 -0.000000 0.000000 -0.000000 153.271691 7.146452 -161.172373 -7.753538 -5.440306 -9.862709 0.000000 0.000000 -0.000000 10.797753 18.700994 -2.213481 -4.927239 3.497297 7.353805 96.806756 -1.680359 -161.392414 -0.000000 0.000000 -0.000000 -0.000000 0.000000 -0.000000 -0.000000 0.000000 -0.000000 1.495167 11.854778 -24.550713 -0.826613 4.386595 22.123034 42.027290 36.386999 -80.376221 -0.000000 0.000000 -0.000000 -0.000000 0.000000 -0.000000 -0.000000 0.000000 -0.000000
-0.059672 0.024877 0.358848 0.000000 0.000000 0.000000 0.665610 -19.572232 -4.373485 136.170248 -10.318243 160.328403 139.796016 0.450782 154.352454 -0.000000 0.000000 0.000000 167.162957 -8.365383 163.828024 -12.248851 23.484096 4.351571 0.000000 0.000000 0.000000 154.150297 7.130555 -161.263223 -7.435774 -5.625313 -9.882668 -0.000000 0.000000 0.000000 11.269052 18.657761 -2.308074 -4.489511 3.506919 7.348782 95.578178 -1.185879 -161.160434 0.000000 0.000000 -0.000000 0.000000 0.000000 -0.000000 0.000000 0.000000 -0.000000 3.523186 11.508358 -25.280160 -2.469923 4.063763 22.548967 40.973965 35.414987 -79.446192 0.000000 0.000000 -0.000000 0.000000 0.000000 -0.000000 0.000000 0.000000 -0.000000
-0.062201 0.025805 0.373625 0.000000 0.000000 0.000000 0.617067 -19.541282 -4.450247 136.406725 -10.325524 160.274565 139.998745 0.492559 154.323791 0.000000 0.000000 -0.000000 167.514735 -8.338734 163.793468 -12.735795 23.557751 4.391107 0.000000 0.000000 0.000000 154.762110 7.125010 -161.337229 -7.259274 -5.739431 -9.883269 0.000000 0.000000 -0.000000 11.567950 18.628485 -2.332905 -4.132656 3.513399 7.344003 94.693141 -0.832294 -160.993675 -0.000000 0.000000 0.000000 -0.000000 0.000000 0.000000 -0.000000 0.000000 0.000000 5.314472 11.191018 -25.865574 -3.937909 3.748016 22.874077 40.156803 34.657510 -78.774314 0.000000 0.000000 0.000000 0.000000 0.000000 0.000000 0.000000 0.000000 0.000000
